<svg xmlns="http://www.w3.org/2000/svg" width="1600" height="900" viewBox="0 0 1600 900"><rect width="1600" height="900" fill="#fcfcfb"/><g font-family="Inter, 'Helvetica Neue', Arial, sans-serif"><text x="80" y="96" font-size="44" fill="#1a1a1a" font-weight="600" text-anchor="start">Area allocation</text><text x="80" y="136" font-size="21" fill="#6b6b6b" font-weight="400" text-anchor="start">Where the square footage actually goes</text><path d="M 760.0 290.0 A 190 190 0 1 1 712.7 664.0 L 732.6 586.7 A 110 110 0 1 0 760.0 369.8 Z" fill="#2a78d6" stroke="#fcfcfb" stroke-width="2"/><text x="1000.0917577181036" y="510.3306425225616" font-size="18" fill="#1a1a1a" font-weight="600" text-anchor="start">Workspace</text><text x="1000.0917577181036" y="534.3306425225617" font-size="17" fill="#6b6b6b" font-weight="400" text-anchor="start">54%</text><path d="M 712.7 664.0 A 190 190 0 0 1 570.4 468.1 L 650.0 473.1 A 110 110 0 0 0 732.6 586.7 Z" fill="#eb6834" stroke="#fcfcfb" stroke-width="2"/><text x="564.2178873612627" y="622.2440310547786" font-size="18" fill="#1a1a1a" font-weight="600" text-anchor="end">Meeting</text><text x="564.2178873612627" y="646.2440310547786" font-size="17" fill="#6b6b6b" font-weight="400" text-anchor="end">22%</text><path d="M 570.4 468.1 A 190 190 0 0 1 760.0 290.0 L 760.0 369.8 A 110 110 0 0 0 650.0 473.1 Z" fill="#1baf7a" stroke="#fcfcfb" stroke-width="2"/><text x="594.3396003652573" y="303.5895921640184" font-size="18" fill="#1a1a1a" font-weight="600" text-anchor="end">Amenity + support</text><text x="594.3396003652573" y="327.5895921640184" font-size="17" fill="#6b6b6b" font-weight="400" text-anchor="end">24%</text><text x="1240" y="420" font-size="22" fill="#1a1a1a" font-weight="600" text-anchor="start">Against the area statement</text><text x="1240" y="454" font-size="18" fill="#6b6b6b" font-weight="400" text-anchor="start">Every square foot accounted for,</text><text x="1240" y="480" font-size="18" fill="#6b6b6b" font-weight="400" text-anchor="start">including circulation and core.</text></g></svg>